<svg xmlns="http://www.w3.org/2000/svg" viewBox="0 0 128 128">
  <defs>
    <linearGradient id="g" x1="0" y1="0" x2="0" y2="1">
      <stop offset="0%" stop-color="#f7d774"/>
      <stop offset="50%" stop-color="#d9b64a"/>
      <stop offset="100%" stop-color="#b9912e"/>
    </linearGradient>
  </defs>
  <rect width="128" height="128" rx="24" fill="#131313"/>
  <g transform="translate(16,12)" fill="url(#g)">
    <path d="M72 8H24a2 2 0 0 0-2 2v8a18 18 0 0 0 16 17.73V48a12 12 0 0 0 10 11.82V68H28a4 4 0 0 0-4 4v4h56v-4a4 4 0 0 0-4-4H54v-8.18A12 12 0 0 0 64 48V35.73A18 18 0 0 0 74 18v-8a2 2 0 0 0-2-2Zm-46 8v-4h4v4a10 10 0 0 1-10 10c-3.31 0-6-2.69-6-6v-4h12Zm58 4c0 3.31-2.69 6-6 6a10 10 0 0 1-10-10v-4h16v4Z"/>
    <rect x="36" y="72" width="24" height="6" rx="3"/>
    <rect x="30" y="80" width="36" height="6" rx="3"/>
  </g>
</svg>
